<?xml version="1.0" encoding="utf-8"?>
<!-- Generator: Adobe Illustrator 25.1.0, SVG Export Plug-In . SVG Version: 6.00 Build 0)  -->
<svg version="1.1" id="Layer_1" xmlns="http://www.w3.org/2000/svg" xmlns:xlink="http://www.w3.org/1999/xlink" x="0px" y="0px"
	 viewBox="0 0 595.28 595.28" style="enable-background:new 0 0 595.28 595.28;" xml:space="preserve">
<style type="text/css">
	.st0{fill-rule:evenodd;clip-rule:evenodd;fill:#194E92;}
	.st1{fill:#194E92;}
</style>
<g>
	<path class="st0" d="M288.42,192.42l92.42,92.42c8,8,8,20.86,0,28.85l-92.42,92.43c-8.34,8.33-19.81,10.08-28.15,1.74l-3.47-3.47
		c-6.61-7.31-8-16-1.04-22.6c22.92-22.58,45.5-45.52,68.45-68.1c7.99-8,7.99-20.85,0-28.85c-22.94-22.92-45.53-45.51-68.45-68.1
		c-6.96-6.59-5.57-15.28,1.04-22.93l3.47-3.12C268.61,182.36,280.08,184.09,288.42,192.42L288.42,192.42z"/>
</g>
<g>
	<path class="st1" d="M413.1,519.46H201.63c-57.53,0-104.32-46.8-104.32-104.32V206.23c0-57.53,46.8-104.32,104.32-104.32H413.1
		c57.53,0,104.32,46.8,104.32,104.32v208.91C517.42,472.66,470.62,519.46,413.1,519.46z M201.63,107.55
		c-54.41,0-98.68,44.27-98.68,98.68v208.91c0,54.41,44.27,98.68,98.68,98.68H413.1c54.41,0,98.68-44.27,98.68-98.68V206.23
		c0-54.41-44.27-98.68-98.68-98.68C413.1,107.55,201.63,107.55,201.63,107.55z"/>
</g>
</svg>
