<?xml version="1.0" encoding="utf-8"?>
<!-- Generator: Adobe Illustrator 25.1.0, SVG Export Plug-In . SVG Version: 6.00 Build 0)  -->
<svg version="1.1" id="Layer_1" xmlns="http://www.w3.org/2000/svg" xmlns:xlink="http://www.w3.org/1999/xlink" x="0px" y="0px"
	 viewBox="0 0 595.28 595.28" style="enable-background:new 0 0 595.28 595.28;" xml:space="preserve">
<style type="text/css">
	.st0{fill:#194E92;}
</style>
<path class="st0" d="M517.82,261.6v-38.42c0-0.38-0.02-0.76-0.06-1.14c-4.8-46.15-29.24-88.72-68.8-119.89
	c-40.35-31.79-94.07-49.29-151.28-49.29c-58.05,0-107.27,16-146.29,47.55c-35.9,29.03-61.32,70.57-73.53,120.13
	c-0.21,0.86-0.32,1.75-0.32,2.64v38.41c-38.45,3.72-68.34,29.6-68.34,60.9v33.56c0,31.74,30.72,57.92,69.95,61.06
	c3.06,23.59,15.49,44.26,33.43,58.16v56.83c0,6.09,4.94,11.03,11.03,11.03c6.07,0,11-4.9,11.03-10.97c0-0.02,0-0.04,0-0.06v-44.34
	c9.84,3.82,20.52,5.93,31.69,5.93h15.09c12.25,15.76,27.29,29.04,44.34,39.01c22.06,12.91,47.47,20.28,74.5,20.28
	c26.42,0,51.3-7.04,73.02-19.42c47.69-27.18,80.12-80.11,80.12-140.82v-88.36c0-0.03,0-0.06,0-0.09c0-0.25-0.02-0.5-0.04-0.75
	c-0.01-0.12-0.01-0.24-0.02-0.36c-0.03-0.23-0.07-0.46-0.11-0.69c-0.02-0.13-0.04-0.27-0.07-0.4c-0.04-0.19-0.1-0.38-0.15-0.57
	c-0.04-0.16-0.08-0.33-0.13-0.49c-0.05-0.15-0.11-0.29-0.16-0.44c-0.07-0.19-0.14-0.39-0.22-0.57c-0.05-0.12-0.11-0.23-0.17-0.35
	c-0.1-0.2-0.19-0.41-0.3-0.61c-0.06-0.11-0.13-0.21-0.2-0.32c-0.12-0.19-0.23-0.39-0.36-0.58c-0.08-0.12-0.18-0.24-0.27-0.36
	c-0.12-0.16-0.24-0.32-0.36-0.48c-0.12-0.14-0.25-0.28-0.38-0.42c-0.11-0.12-0.21-0.24-0.33-0.36c-0.15-0.15-0.31-0.29-0.48-0.43
	c-0.1-0.09-0.2-0.19-0.31-0.27c-0.17-0.14-0.35-0.26-0.52-0.39c-0.11-0.08-0.22-0.17-0.34-0.24c-0.16-0.11-0.34-0.21-0.51-0.31
	c-0.14-0.08-0.28-0.17-0.42-0.25c-0.15-0.08-0.3-0.14-0.45-0.22c-0.18-0.09-0.36-0.18-0.55-0.25c-0.12-0.05-0.25-0.09-0.37-0.14
	c-0.22-0.08-0.44-0.16-0.67-0.23c-0.11-0.03-0.23-0.06-0.35-0.09c-0.24-0.06-0.49-0.13-0.73-0.17c-0.03-0.01-0.06-0.01-0.08-0.02
	c-11.1-2.04-26.28-7.58-42.53-14.56c-43.46-18.68-94.5-47.75-95.21-48.15c-3.86-2.2-8.66-1.88-12.18,0.82
	c-32.15,24.63-66.24,39.61-91.92,48.37c-24.37,8.32-41.16,11.05-41.5,11.1c-2.13,0.33-4.02,1.26-5.53,2.57
	c-4.81,1.19-8.38,5.52-8.38,10.7v88.36c0,28.66,7.23,55.58,19.88,78.88h-0.67c-11.48,0-22.28-2.96-31.69-8.14V280.37v-4.99
	c0-82.68,74.17-149.94,165.34-149.94c91.17,0,165.34,67.26,165.34,149.94v3.26V534.1v0.06c0,6.09,4.94,11.03,11.03,11.03
	c6.09,0,11.03-4.94,11.03-11.03V278.52v-3.14c0-94.84-84.07-172.01-187.41-172.01c-103.34,0-187.41,77.16-187.41,172.01v5.11v163.27
	c-7.62-10.75-12.12-23.86-12.12-38.01c0-1.67-0.38-3.25-1.05-4.67V282.65c0.12-0.66,0.19-1.34,0.19-2.04v-0.06v-56.02
	c11.16-44.27,33.84-81.24,65.65-106.96c34.99-28.3,79.54-42.64,132.42-42.64c52.27,0,101.15,15.82,137.62,44.56
	c34.68,27.31,56.12,64.33,60.45,104.28v54.66c0,0.02,0,0.04,0,0.06c0,0.47,0.04,0.93,0.1,1.38v126.51c0,6.03,4.85,10.95,10.88,11.03
	l0.4,0.01c0.35,0.01,0.71,0.02,1.07,0.02c42.93,0,77.87-27.53,77.87-61.37v-33.56C586.07,291.21,556.23,265.35,517.82,261.6z
	 M169.21,392.75v-80.68c6.65-1.3,19.65-4.2,36.4-9.68c15.5-5.08,34.19-12.37,54.01-22.66c13.82-7.18,28.19-15.81,42.4-26.17
	c9.26,5.16,27.53,15.17,48.53,25.7c17.44,8.74,36.76,17.84,54.38,24.83c9.5,3.77,18.48,6.91,26.43,9.06v79.62
	c0,76.19-58.8,138.17-131.07,138.17c-34.52,0-65.96-14.15-89.39-37.22h16.77c4.62,8.54,13.65,14.36,24.03,14.36h31.3
	c15.05,0,27.29-12.24,27.29-27.29c0-15.05-12.24-27.29-27.29-27.29h-31.3c-11.84,0-21.91,7.59-25.68,18.15h-33.27
	C177.91,449.24,169.21,422.05,169.21,392.75z M564,356.05c0,19.34-19.93,35.46-46.07,38.71V283.78
	c26.15,3.25,46.07,19.37,46.07,38.71V356.05z M31.28,322.49c0-19.34,19.93-35.46,46.07-38.71v110.98
	c-26.15-3.25-46.07-19.37-46.07-38.71V322.49z"/>
</svg>
