<?xml version="1.0" encoding="utf-8"?>
<!-- Generator: Adobe Illustrator 25.1.0, SVG Export Plug-In . SVG Version: 6.00 Build 0)  -->
<svg version="1.1" id="Layer_1" xmlns="http://www.w3.org/2000/svg" xmlns:xlink="http://www.w3.org/1999/xlink" x="0px" y="0px"
	 viewBox="0 0 450 450" style="enable-background:new 0 0 450 450;" xml:space="preserve">
<style type="text/css">
	.st0{fill:#194E92;}
</style>
<g id="g_2_">
	<path id="s_9_" class="st0" d="M13.87,318.62c0,1.79,0.76,3.58,2.31,5c1.55,1.38,3.55,2.07,5.58,2.07h46.16
		c0-6.17,1.21-12.06,3.45-17.41h-57.5L13.87,318.62L13.87,318.62z"/>
	<path id="s_8_" class="st0" d="M158.75,325.69h123.06c0-6.17,1.21-12.06,3.45-17.41H155.31
		C157.51,313.63,158.75,319.52,158.75,325.69z"/>
	<path id="s_7_" class="st0" d="M410.63,179.43c-12.55-12.55-28.92-23.37-44.64-25.68c-15.68-2.34-46.33-2.48-46.33-2.48v129.64
		c2.45-0.45,4.96-0.62,7.55-0.62c25.06,0,45.4,20.34,45.4,45.4h38.06c4.83,0,9.65-1.83,13.27-5.52c3.69-3.69,5.52-8.48,5.52-13.31
		V224.9C429.45,208.46,423.18,191.98,410.63,179.43z M416.25,240.48c0,1.96-0.83,3.86-2.45,5.21c-1.62,1.31-3.65,1.76-5.55,1.38
		L341,233.65c-1.48-0.28-2.83-1.07-3.86-2.31s-1.52-2.76-1.52-4.27v-57.46c0,0,22.51,0.1,34.02,1.83
		c11.51,1.72,23.54,9.65,32.78,18.86c9.24,9.24,13.86,21.3,13.86,33.4v16.79L416.25,240.48L416.25,240.48z"/>
	<path id="s_6_" class="st0" d="M145.52,304.01c-0.62-0.86-1.21-1.72-1.86-2.55c-7.1-8.89-18.03-14.58-30.3-14.58
		s-23.2,5.69-30.33,14.58c-0.65,0.83-1.28,1.69-1.86,2.55c-0.93,1.38-1.76,2.79-2.45,4.27c-2.65,5.24-4.14,11.13-4.14,17.41
		c0,21.44,17.37,38.81,38.81,38.81s38.78-17.37,38.78-38.81c0-6.27-1.48-12.17-4.14-17.41C147.28,306.8,146.45,305.39,145.52,304.01
		z M113.36,345.75c-11.1,0-20.1-9-20.1-20.1c0-7.45,4.07-13.96,10.1-17.41c2.93-1.72,6.38-2.69,10-2.69s7.03,0.97,10,2.69
		c6.03,3.45,10.1,9.96,10.1,17.41C133.42,336.76,124.42,345.75,113.36,345.75z"/>
	<path id="s_5_" class="st0" d="M327.21,286.91c-2.59,0-5.1,0.24-7.55,0.72c-3.14,0.62-6.17,1.62-8.96,2.96
		c-6.38,2.96-11.75,7.65-15.68,13.41c-4.17,6.2-6.58,13.65-6.58,21.65c0,21.44,17.34,38.81,38.78,38.81S366,347.09,366,325.65
		C365.99,304.25,348.62,286.91,327.21,286.91z M327.21,345.75c-11.1,0-20.1-9-20.1-20.1c0-4.24,1.31-8.2,3.58-11.44
		c2.21-3.21,5.31-5.72,8.96-7.17c2.31-0.93,4.86-1.48,7.55-1.48c11.1,0,20.1,9,20.1,20.1C347.28,336.76,338.28,345.75,327.21,345.75
		z"/>
	<g>
		<path class="st0" d="M13.87,301.49h61.01c8.03-12.72,22.23-21.2,38.44-21.2c16.17,0,30.37,8.48,38.44,21.2h137.02
			c5.14-8.14,12.82-14.55,21.92-18.1V125.86H13.91v175.63H13.87z"/>
		<rect x="13.87" y="103.91" class="st0" width="296.79" height="16.93"/>
	</g>
</g>
</svg>
