<?xml version="1.0" encoding="utf-8"?>
<!-- Generator: Adobe Illustrator 25.1.0, SVG Export Plug-In . SVG Version: 6.00 Build 0)  -->
<svg version="1.1" id="Objects" xmlns="http://www.w3.org/2000/svg" xmlns:xlink="http://www.w3.org/1999/xlink" x="0px" y="0px"
	 viewBox="0 0 800 800" style="enable-background:new 0 0 800 800;" xml:space="preserve">
<style type="text/css">
	.st0{fill:#194E92;}
</style>
<path class="st0" d="M400.74,92.31C230.81,92.31,93.06,230.07,93.06,400c0,169.93,137.76,307.69,307.69,307.69
	c169.93,0,307.69-137.76,307.69-307.69C708.43,230.07,570.67,92.31,400.74,92.31z M491.1,278.97c0,0-30.6,0-42.74,0
	c-15.1,0-18.23,6.17-18.23,21.78c0,12.99,0,37.71,0,37.71h60.98l-5.87,66.22h-55.1v197.77h-78.98V405.52h-41.08v-67.05h41.08
	c0,0,0-9.64,0-52.8c0-49.54,26.5-75.43,85.27-75.43c9.62,0,54.69,0,54.69,0V278.97z"/>
</svg>
