<?xml version="1.0" encoding="utf-8"?>
<!-- Generator: Adobe Illustrator 25.1.0, SVG Export Plug-In . SVG Version: 6.00 Build 0)  -->
<svg version="1.1" id="Objects" xmlns="http://www.w3.org/2000/svg" xmlns:xlink="http://www.w3.org/1999/xlink" x="0px" y="0px"
	 viewBox="0 0 800 800" style="enable-background:new 0 0 800 800;" xml:space="preserve">
<style type="text/css">
	.st0{fill:#194E92;}
</style>
<g>
	<path class="st0" d="M561.16,276.88c-3.74-9.63-8.21-16.5-15.43-23.72s-14.09-11.69-23.72-15.43c-7.27-2.82-18.19-6.19-38.3-7.1
		c-21.75-0.99-28.27-1.2-83.35-1.2c-55.07,0-61.6,0.21-83.35,1.2c-20.11,0.92-31.03,4.28-38.3,7.1c-9.63,3.74-16.5,8.21-23.72,15.43
		c-7.22,7.22-11.69,14.09-15.43,23.72c-2.82,7.27-6.19,18.19-7.1,38.3c-0.99,21.75-1.2,28.27-1.2,83.35s0.21,61.6,1.2,83.35
		c0.92,20.11,4.28,31.03,7.1,38.3c3.74,9.63,8.21,16.5,15.43,23.72c7.22,7.22,14.09,11.69,23.72,15.43
		c7.27,2.82,18.19,6.19,38.3,7.1c21.75,0.99,28.27,1.2,83.35,1.2s61.6-0.21,83.35-1.2c20.11-0.92,31.03-4.28,38.3-7.1
		c9.63-3.74,16.5-8.21,23.72-15.43s11.69-14.09,15.43-23.72c2.83-7.27,6.19-18.19,7.1-38.3c0.99-21.75,1.2-28.27,1.2-83.35
		c0-55.07-0.21-61.6-1.2-83.35C567.35,295.07,563.99,284.15,561.16,276.88z M400.37,504.45c-58.5,0-105.92-47.42-105.92-105.92
		s47.42-105.92,105.92-105.92s105.92,47.42,105.92,105.92C506.29,457.03,458.87,504.45,400.37,504.45z M510.47,313.18
		c-13.67,0-24.75-11.08-24.75-24.75s11.08-24.75,24.75-24.75s24.75,11.08,24.75,24.75C535.23,302.09,524.14,313.18,510.47,313.18z"
		/>
	<path class="st0" d="M400.37,329.77c-37.97,0-68.76,30.78-68.76,68.75s30.78,68.76,68.76,68.76s68.76-30.78,68.76-68.76
		C469.12,360.56,438.34,329.77,400.37,329.77z"/>
	<path class="st0" d="M400,34.29c-197.04,0-356.77,159.73-356.77,356.77S202.96,747.83,400,747.83S756.77,588.1,756.77,391.06
		S597.04,34.29,400,34.29z M605.39,483.57c-1,21.95-4.49,36.95-9.59,50.07c-5.27,13.56-12.32,25.07-23.79,36.53
		c-11.47,11.47-22.97,18.52-36.53,23.79c-13.12,5.1-28.11,8.58-50.07,9.59c-22,1-29.02,1.24-85.04,1.24s-63.04-0.24-85.04-1.24
		c-21.95-1-36.95-4.49-50.07-9.59c-13.56-5.27-25.07-12.32-36.53-23.79c-11.47-11.47-18.52-22.97-23.79-36.53
		c-5.1-13.12-8.59-28.11-9.59-50.07c-1-22-1.24-29.02-1.24-85.04s0.24-63.04,1.24-85.04c1-21.95,4.49-36.95,9.59-50.07
		c5.27-13.56,12.32-25.07,23.79-36.53c11.47-11.47,22.97-18.52,36.53-23.79c13.12-5.1,28.11-8.59,50.07-9.59
		c22-1,29.03-1.24,85.04-1.24c56.02,0,63.04,0.24,85.04,1.24c21.96,1,36.95,4.49,50.07,9.59c13.56,5.27,25.07,12.32,36.53,23.79
		c11.47,11.47,18.52,22.97,23.79,36.53c5.1,13.12,8.59,28.12,9.59,50.07c1,22,1.24,29.02,1.24,85.04S606.4,461.57,605.39,483.57z"/>
</g>
</svg>
