<?xml version="1.0" encoding="utf-8"?>
<!-- Generator: Adobe Illustrator 25.1.0, SVG Export Plug-In . SVG Version: 6.00 Build 0)  -->
<svg version="1.1" id="Layer_1" xmlns="http://www.w3.org/2000/svg" xmlns:xlink="http://www.w3.org/1999/xlink" x="0px" y="0px"
	 viewBox="0 0 595.28 595.28" style="enable-background:new 0 0 595.28 595.28;" xml:space="preserve">
<style type="text/css">
	.st0{fill:#194E92;}
</style>
<g>
	<path class="st0" d="M296.78,582.3c129.4,0,234.67-105.27,234.67-234.67c0-61.93-24.12-118.32-63.45-160.3
		c18.81-30.93,41.43-72.93,41.43-96.2c0-41.27-33.58-74.84-74.84-74.84c-41.27,0-74.84,33.58-74.84,74.84
		c0,8.82,3.25,20.33,8.3,32.9c-22.49-7.18-46.43-11.08-71.27-11.08c-43.79,0-84.81,12.07-119.93,33.03
		c-10.9-18.31-30.89-30.61-53.7-30.61c-34.44,0-62.46,28.02-62.46,62.46c0,16,12.81,42.5,25.93,65.45
		C70.94,274.74,62.1,310.17,62.1,347.63C62.1,477.03,167.38,582.3,296.78,582.3z M161.7,358.77c1.39,23.9,7.23,48.43,17.3,73.04
		c-22.15,8.77-42.15,19.94-59.11,33.24c-20.49-30.76-33.18-67.13-35.21-106.28H161.7z M196.01,280.91
		c27.65,9.02,58.03,14.51,89.63,16.04v39.54H184.01C185.25,317.21,189.62,298.57,196.01,280.91z M409.55,336.49H307.92v-39.13
		c31.75-0.35,62.6-4.72,90.98-12.65C404.55,301.23,408.4,318.59,409.55,336.49z M395,420.83c-27.29-7.26-56.77-11.27-87.08-11.6
		v-50.46h101.63C408.15,380.48,402.77,401.33,395,420.83z M184.01,358.77h101.63v50.88c-30.09,1.46-59.08,6.52-85.65,14.78
		C191.45,403.91,185.49,381.84,184.01,358.77z M285.64,431.94v111.3c-20.21-19.1-53.18-54.2-76.15-98.47
		C233.14,437.69,258.88,433.31,285.64,431.94z M307.92,543.21v-111.7c27.09,0.31,53.41,3.72,77.82,9.89
		C362.72,487.2,328.63,523.61,307.92,543.21z M307.92,275.09V150.57c22.26,21.39,59.95,62.36,82.75,113.34
		C364.88,270.89,336.85,274.75,307.92,275.09z M285.64,150.63v124.03c-28.64-1.46-56.1-6.39-81.09-14.36
		C227.48,211.05,263.89,171.53,285.64,150.63z M133.16,482.92c0.07-0.05,0.14-0.08,0.21-0.14c15.63-12.3,34.2-22.62,54.86-30.7
		c9.91,19.72,22.48,39.4,37.64,58.75c15.65,19.98,31.21,36.09,43.09,47.38C214.55,551.05,166.56,523.24,133.16,482.92z M324.6,558.2
		c11.87-11.29,27.43-27.39,43.09-47.38c16.25-20.75,29.54-41.89,39.76-63.05c21.63,7.31,41.3,16.94,58.11,28.63
		C432.04,520.23,381.89,550.67,324.6,558.2z M478.16,458.04c-18.01-12.49-38.92-22.82-61.81-30.71c8.97-23.1,14.2-46.11,15.51-68.56
		h77.02C507,394.98,496.01,428.82,478.16,458.04z M431.86,336.49c-1.11-19.16-5.08-38.77-11.79-58.53
		c23.42-8.42,44.67-19.44,62.74-32.72c15.1,27.33,24.36,58.31,26.07,91.26H431.86z M487.15,91.13c0,15.52-17.13,49.29-35.6,80.26
		c-3.95,6.61-7.95,13.1-11.86,19.25c-1.72,2.71-3.43,5.36-5.1,7.92c-4.93-7.54-10.12-15.79-15.25-24.3
		c-7.65-12.69-15.14-25.96-21.39-38.35c-9.37-18.59-15.93-35.18-15.93-44.78c0-28.99,23.58-52.57,52.57-52.57
		C463.57,38.56,487.15,62.14,487.15,91.13z M381.6,152.92c17.53,33.5,39.84,66.18,43.82,71.95c2.08,3.01,5.51,4.81,9.17,4.81
		s7.09-1.8,9.17-4.81c1.58-2.29,6.05-8.82,11.97-17.97c5.45,6.15,10.55,12.61,15.27,19.36c-16.79,12.6-36.77,23.01-58.94,30.94
		c-10.68-24.62-25.51-49.33-44.3-73.58c-14.92-19.26-29.75-34.98-41.38-46.33C345.73,140.01,364.26,145.34,381.6,152.92z
		 M267.27,137.29c-11.64,11.34-26.48,27.07-41.41,46.33c-17.64,22.75-31.78,45.9-42.29,69.01c-8.02-3.32-15.69-6.99-22.98-10.98
		c16.82-29.52,25.03-50.44,25.03-63.81c0-3.59-0.32-7.11-0.91-10.54C209.33,151.93,237.3,141.48,267.27,137.29z M123.15,137.66
		c15.08,0,28.23,8.35,35.11,20.67c3.23,5.78,5.07,12.43,5.07,19.51c0,1.31-0.25,3.09-0.77,5.31c-2.08,8.89-8.53,24.92-20.82,46.86
		c-3.35,5.97-7.13,12.38-11.37,19.2c-2.27,3.65-4.67,7.42-7.21,11.3c-4.04-6.18-7.72-12.05-11.09-17.64
		c-4.85-8.05-9.03-15.47-12.57-22.21c-11.68-22.22-16.53-37.06-16.53-42.83C82.97,155.68,101,137.66,123.15,137.66z M100.55,266.38
		c6.6,10.45,11.84,18.11,13.44,20.42c2.08,3.01,5.51,4.81,9.17,4.81s7.09-1.8,9.17-4.81c0.4-0.58,7.75-11.24,16.88-26.01
		c8.24,4.54,16.91,8.68,25.96,12.42c-7.72,21.37-12.26,42.58-13.46,63.28H84.67C85.96,311.78,91.49,288.17,100.55,266.38z"/>
	<path class="st0" d="M112.91,201.98c3.2,1.19,6.64,1.87,10.24,1.87c16.27,0,29.5-13.23,29.5-29.5c0-3.63-0.69-7.09-1.89-10.3
		c-4.19-11.2-14.97-19.21-27.61-19.21c-16.27,0-29.5,13.23-29.5,29.5C93.65,187.01,101.68,197.8,112.91,201.98z M123.15,160.76
		c7.49,0,13.59,6.1,13.59,13.59c0,0.67-0.06,1.32-0.16,1.96c-0.86,5.92-5.53,10.6-11.45,11.47c-0.65,0.1-1.31,0.16-1.99,0.16
		c-7.49,0-13.59-6.1-13.59-13.59C109.56,166.86,115.66,160.76,123.15,160.76z"/>
	<path class="st0" d="M434.59,121.5c19.13,0,34.7-15.57,34.7-34.7c0-19.13-15.57-34.7-34.7-34.7c-19.13,0-34.7,15.57-34.7,34.7
		C399.88,105.94,415.45,121.5,434.59,121.5z M434.59,68.01c10.36,0,18.79,8.43,18.79,18.79s-8.43,18.79-18.79,18.79
		c-10.36,0-18.79-8.43-18.79-18.79S424.22,68.01,434.59,68.01z"/>
</g>
</svg>
