<?xml version="1.0" encoding="utf-8"?>
<!-- Generator: Adobe Illustrator 25.1.0, SVG Export Plug-In . SVG Version: 6.00 Build 0)  -->
<svg version="1.1" id="Layer_1" xmlns="http://www.w3.org/2000/svg" xmlns:xlink="http://www.w3.org/1999/xlink" x="0px" y="0px"
	 viewBox="0 0 450 450" style="enable-background:new 0 0 450 450;" xml:space="preserve">
<style type="text/css">
	.st0{fill:#194E92;}
</style>
<g>
	<path class="st0" d="M318.71,157.2c23.59-2.46,32.9,6.65,34.35,26.62c19.11-6.55,33.85-11.6,33.85-11.6l-34.74-96.19l-108.25,36.43
		c6.24,19.65,12.02,35.13,18.52,53.12C269.7,164.3,298.78,159.27,318.71,157.2z"/>
	<g>
		<path class="st0" d="M346.34,180.23c-2.27-12.33-14.11-20.47-26.45-18.23l-53.97,9.94l-30.39-40.38
			c-3.37-14.22-16.01-24.87-31.27-24.97c-0.08,0-0.15,0-0.22,0c-17.82,0-32.33,14.39-32.45,32.23l-0.82,114.64
			c-0.11,17.26,13.29,26.79,30.32,41.85l48.11,43.09l10.53,76.36c1.57,11.37,11.31,19.61,22.47,19.61c1.03,0,2.08-0.06,3.13-0.22
			c12.43-1.71,21.12-13.17,19.4-25.6l-11.67-84.62c-0.74-5.32-3.34-10.22-7.34-13.82l-50.24-45.01c0.04-0.62,0.19-1.2,0.2-1.82
			l0.27-41.59c-1.36-2.24-18.53-30.69-28.64-52.13l30.77,40.89c4.33,5.77,11.09,9.06,18.14,9.06c1.36,0,2.74-0.13,4.11-0.38
			l67.78-12.47C340.45,204.41,348.61,192.58,346.34,180.23z"/>
		<path class="st0" d="M168.66,280.26l-54.87,124.36c-5.07,11.47,0.13,24.88,11.61,29.95c2.98,1.32,6.1,1.94,9.15,1.94
			c8.73,0,17.05-5.06,20.8-13.55l48.86-110.75C194.48,304.99,179.61,293.01,168.66,280.26z"/>
		<path class="st0" d="M202.45,103.21c0.67,0.04,1.34,0.05,2.02,0.05c23.44,0,42.64-18.34,43.73-41.75
			c0.27-5.68-0.57-11.26-2.4-16.48L162.88,73.1c1.9,5.8,4.98,11.2,9.22,15.86C179.98,97.61,190.75,102.68,202.45,103.21z"/>
	</g>
	<path class="st0" d="M265.58,32.33L160.46,67.91c0,0-9.14-29.51,11.03-42.7c16.34-10.7,32.98-14.25,47.61-9.92
		c13.31,3.93,21.52,15.59,21.52,15.59s24.97-4.96,26.6-4.06C272.04,29.47,267.42,31.3,265.58,32.33z"/>
</g>
</svg>
