<?xml version="1.0" encoding="utf-8"?>
<!-- Generator: Adobe Illustrator 25.1.0, SVG Export Plug-In . SVG Version: 6.00 Build 0)  -->
<svg version="1.1" id="Layer_1" xmlns="http://www.w3.org/2000/svg" xmlns:xlink="http://www.w3.org/1999/xlink" x="0px" y="0px"
	 viewBox="0 0 595.28 595.28" style="enable-background:new 0 0 595.28 595.28;" xml:space="preserve">
<style type="text/css">
	.st0{fill:#194E92;}
</style>
<g>
	<path class="st0" d="M494.81,177.3c3.49,1.37,7.22,2.12,11.02,2.12c8.91,0,17.32-3.91,23.06-10.71
		c10.72-12.71,9.1-31.77-3.61-42.49l-23.35-19.69c-5.43-4.58-12.33-7.1-19.43-7.1c-8.91,0-17.32,3.91-23.06,10.71
		c-5.19,6.16-7.68,13.97-7,21.99c0.4,4.7,1.89,9.13,4.26,13.05l-6.29,7.45c-33.16-26.19-73.29-43.92-117.1-49.94v-17.2
		c12.71-5.87,21.55-18.73,21.55-33.62v-8.43c0-20.41-16.61-37.02-37.02-37.02h-34.97c-20.41,0-37.02,16.61-37.02,37.02v8.43
		c0,14.66,8.57,27.35,20.95,33.35v17.48c-46.98,6.46-89.71,26.39-124.18,55.76l-11.19-13.27c2.38-3.92,3.86-8.35,4.26-13.05
		c0.68-8.03-1.8-15.84-7-21.99c-5.74-6.81-14.15-10.71-23.06-10.71c-7.1,0-14,2.52-19.43,7.1l-23.35,19.69
		c-12.71,10.72-14.33,29.78-3.61,42.49c5.74,6.81,14.15,10.71,23.06,10.71c3.8,0,7.53-0.74,11.02-2.12l14.67,17.39
		c-31.93,41.13-50.97,92.75-50.97,148.73c0,134,109.02,243.02,243.02,243.02c134,0,243.02-109.02,243.02-243.02
		c0-59.33-21.38-113.74-56.82-155.98L494.81,177.3z M300.08,564.19c-121.73,0-220.77-99.04-220.77-220.77
		c0-49.23,16.2-94.74,43.54-131.49c1.66-2.24,3.38-4.43,5.12-6.61c7.06-8.78,14.77-17.01,23.07-24.62c1.95-1.79,3.94-3.54,5.96-5.26
		c30.58-26.08,68.32-43.99,109.84-50.29c2.63-0.4,5.28-0.74,7.94-1.04c2.64-0.3,5.28-0.57,7.94-0.78
		c5.73-0.45,11.52-0.68,17.36-0.68c5.84,0,11.63,0.23,17.36,0.68c2.66,0.21,5.31,0.48,7.94,0.78c2.66,0.31,5.31,0.64,7.94,1.04
		c38.36,5.82,73.52,21.55,102.76,44.49c2.09,1.64,4.13,3.32,6.16,5.02c2.02,1.71,4.03,3.44,5.99,5.22c4.47,4.06,8.77,8.3,12.9,12.71
		c1.83,1.95,3.63,3.93,5.38,5.94c1.77,2.03,3.49,4.09,5.18,6.18c30.72,37.93,49.15,86.2,49.15,138.71
		C520.85,465.15,421.81,564.19,300.08,564.19z M82.34,163.53c-4.22,0-8.2-1.85-10.92-5.07c-5.07-6.01-4.31-15.03,1.71-20.1
		l23.35-19.69c2.57-2.17,5.83-3.36,9.19-3.36c4.22,0,8.2,1.85,10.92,5.07c2.46,2.91,3.63,6.61,3.31,10.41
		c-0.18,2.17-0.86,4.21-1.93,6.03c-0.81,1.37-1.84,2.61-3.09,3.67l-23.34,19.69c-1.24,1.05-2.65,1.86-4.15,2.43
		C85.78,163.2,84.07,163.53,82.34,163.53z M120.34,156.64l10.54,12.5c-4.34,4.22-8.53,8.6-12.55,13.13l-11.8-13.99L120.34,156.64z
		 M261.76,43.44c0-11.65,9.48-21.13,21.13-21.13h34.97c11.65,0,21.13,9.48,21.13,21.13v8.43c0,6.59-3.04,12.49-7.78,16.36
		c-3.64,2.97-8.29,4.77-13.34,4.77h-34.97c-5.22,0-9.99-1.91-13.68-5.06c-4.55-3.88-7.44-9.64-7.44-16.07V43.44z M282.71,88.88
		c0.06,0,0.12,0,0.18,0h34.55v12.15c-5.74-0.41-11.52-0.63-17.36-0.63c-5.84,0-11.63,0.22-17.36,0.63V88.88z M462.57,162.88
		l5.26-6.23l13.8,11.64l-6.07,7.19C471.39,171.12,467.05,166.92,462.57,162.88z M516.75,158.46c-2.72,3.22-6.69,5.07-10.92,5.07
		c-1.73,0-3.44-0.32-5.04-0.93c-1.5-0.57-2.91-1.38-4.15-2.43l-23.35-19.69c-1.25-1.05-2.28-2.3-3.09-3.67
		c-1.07-1.82-1.75-3.86-1.93-6.03c-0.32-3.8,0.85-7.49,3.31-10.41c2.72-3.22,6.7-5.07,10.92-5.07c3.35,0,6.62,1.19,9.19,3.36
		l23.35,19.69C521.06,143.42,521.82,152.44,516.75,158.46z"/>
	<path class="st0" d="M322.99,154.23c-7.52-0.9-15.16-1.38-22.92-1.38c-7.76,0-15.4,0.48-22.92,1.38
		c-94.31,11.36-167.65,91.86-167.65,189.18c0,105.08,85.49,190.56,190.57,190.56c105.08,0,190.56-85.49,190.56-190.56
		C490.64,246.09,417.3,165.59,322.99,154.23z M300.08,511.74c-92.81,0-168.32-75.51-168.32-168.32S207.26,175.1,300.08,175.1
		c92.81,0,168.32,75.51,168.32,168.32S392.89,511.74,300.08,511.74z"/>
	<path class="st0" d="M300.08,236.52c6.14,0,11.12-4.98,11.12-11.12v-35.43c0-6.14-4.98-11.12-11.12-11.12
		c-6.14,0-11.12,4.98-11.12,11.12v35.43C288.95,231.54,293.93,236.52,300.08,236.52z"/>
	<path class="st0" d="M300.08,450.31c-6.14,0-11.12,4.98-11.12,11.12v35.43c0,6.14,4.98,11.12,11.12,11.12
		c6.14,0,11.12-4.98,11.12-11.12v-35.43C311.2,455.29,306.22,450.31,300.08,450.31z"/>
	<path class="st0" d="M232.98,204.97c-3.07-5.32-9.87-7.14-15.19-4.07c-5.32,3.07-7.14,9.88-4.07,15.19l17.71,30.68
		c2.06,3.57,5.8,5.56,9.64,5.56c1.89,0,3.8-0.48,5.55-1.49c5.32-3.07,7.14-9.87,4.07-15.19L232.98,204.97z"/>
	<path class="st0" d="M368.72,440.06c-3.07-5.32-9.87-7.14-15.19-4.07c-5.32,3.07-7.14,9.87-4.07,15.19l17.71,30.68
		c2.06,3.57,5.8,5.56,9.64,5.56c1.89,0,3.8-0.48,5.55-1.49c5.32-3.07,7.14-9.87,4.07-15.19L368.72,440.06z"/>
	<path class="st0" d="M203.43,274.78l-30.68-17.71c-5.32-3.07-12.12-1.25-15.19,4.07c-3.07,5.32-1.25,12.12,4.07,15.19l30.68,17.71
		c1.75,1.01,3.66,1.49,5.55,1.49c3.84,0,7.58-1.99,9.64-5.56C210.57,284.65,208.75,277.85,203.43,274.78z"/>
	<path class="st0" d="M438.52,410.51l-30.68-17.71c-5.32-3.07-12.12-1.25-15.19,4.07c-3.07,5.32-1.25,12.12,4.07,15.19l30.68,17.71
		c1.75,1.01,3.66,1.49,5.55,1.49c3.84,0,7.58-1.99,9.64-5.56C445.67,420.38,443.84,413.58,438.52,410.51z"/>
	<path class="st0" d="M193.18,343.42c0-6.14-4.98-11.12-11.12-11.12h-35.43c-6.14,0-11.12,4.98-11.12,11.12
		c0,6.14,4.98,11.12,11.12,11.12h35.43C188.2,354.54,193.18,349.56,193.18,343.42z"/>
	<path class="st0" d="M453.52,332.29h-35.43c-6.14,0-11.12,4.98-11.12,11.12c0,6.14,4.98,11.12,11.12,11.12h35.43
		c6.14,0,11.12-4.98,11.12-11.12C464.64,337.27,459.66,332.29,453.52,332.29z"/>
	<path class="st0" d="M192.31,392.79l-30.68,17.71c-5.32,3.07-7.14,9.87-4.07,15.19c2.06,3.57,5.8,5.56,9.64,5.56
		c1.89,0,3.8-0.48,5.55-1.49l30.68-17.71c5.32-3.07,7.14-9.87,4.07-15.19C204.43,391.54,197.63,389.73,192.31,392.79z"/>
	<path class="st0" d="M392.65,289.97c2.06,3.57,5.8,5.56,9.64,5.56c1.89,0,3.8-0.48,5.55-1.49l30.68-17.71
		c5.32-3.07,7.14-9.87,4.07-15.19c-3.07-5.32-9.87-7.14-15.19-4.07l-30.68,17.71C391.4,277.85,389.58,284.65,392.65,289.97z"/>
	<path class="st0" d="M246.63,435.99c-5.32-3.07-12.12-1.25-15.19,4.07l-17.71,30.68c-3.07,5.32-1.25,12.12,4.07,15.19
		c1.75,1.01,3.66,1.49,5.55,1.49c3.84,0,7.58-2,9.64-5.56l17.71-30.68C253.77,445.87,251.95,439.06,246.63,435.99z"/>
	<path class="st0" d="M353.52,250.84c1.75,1.01,3.66,1.49,5.55,1.49c3.84,0,7.58-2,9.64-5.56l17.71-30.68
		c3.07-5.32,1.25-12.12-4.07-15.19c-5.32-3.07-12.12-1.25-15.19,4.07l-17.71,30.68C346.38,240.97,348.2,247.77,353.52,250.84z"/>
	<path class="st0" d="M405.31,245.81c-2.63-2.86-6.95-3.39-10.2-1.26l-96.78,63.4c-18.78,0.91-33.77,16.47-33.77,35.46
		c0,19.58,15.93,35.51,35.51,35.51c18.58,0,33.86-14.35,35.37-32.54l70.29-90.31C408.12,253.01,407.94,248.67,405.31,245.81z
		 M300.08,356.68c-7.31,0-13.26-5.95-13.26-13.26s5.95-13.26,13.26-13.26c7.31,0,13.26,5.95,13.26,13.26
		S307.39,356.68,300.08,356.68z M331.07,326.13c-2.9-5.18-7.06-9.56-12.06-12.73l44.83-29.37L331.07,326.13z"/>
</g>
</svg>
