<?xml version="1.0" encoding="utf-8"?>
<!-- Generator: Adobe Illustrator 25.1.0, SVG Export Plug-In . SVG Version: 6.00 Build 0)  -->
<svg version="1.1" id="Objects" xmlns="http://www.w3.org/2000/svg" xmlns:xlink="http://www.w3.org/1999/xlink" x="0px" y="0px"
	 viewBox="0 0 800 800" style="enable-background:new 0 0 800 800;" xml:space="preserve">
<style type="text/css">
	.st0{fill:#194E92;}
</style>
<path class="st0" d="M400,61.82C213.23,61.82,61.82,213.23,61.82,400c0,186.77,151.41,338.18,338.18,338.18
	c186.77,0,338.18-151.41,338.18-338.18C738.18,213.23,586.77,61.82,400,61.82z M576.34,339.12
	c4.92,109.65-76.85,231.91-221.59,231.91c-44.02,0-85-12.91-119.5-35.03c41.36,4.89,82.65-6.58,115.42-32.28
	c-34.12-0.64-62.91-23.16-72.82-54.14c12.2,2.33,24.22,1.66,35.2-1.33c-37.49-7.53-63.37-41.31-62.53-77.43
	c10.5,5.84,22.54,9.35,35.32,9.76c-34.72-23.2-44.55-69.04-24.13-104.09c38.44,47.18,95.89,78.21,160.68,81.46
	c-11.36-48.76,25.62-95.72,75.93-95.72c22.43,0,42.69,9.46,56.91,24.62c17.74-3.5,34.43-9.99,49.49-18.93
	c-5.82,18.22-18.18,33.5-34.27,43.13c15.76-1.88,30.78-6.07,44.77-12.27C604.79,314.41,591.57,328.14,576.34,339.12z"/>
</svg>
