<?xml version="1.0" encoding="utf-8"?>
<!-- Generator: Adobe Illustrator 25.1.0, SVG Export Plug-In . SVG Version: 6.00 Build 0)  -->
<svg version="1.1" id="Objects" xmlns="http://www.w3.org/2000/svg" xmlns:xlink="http://www.w3.org/1999/xlink" x="0px" y="0px"
	 viewBox="0 0 800 800" style="enable-background:new 0 0 800 800;" xml:space="preserve">
<style type="text/css">
	.st0{fill:#194E92;}
</style>
<g>
	<path class="st0" d="M410.08,204.25c-85.32,0-155.7,64.79-163.76,147.45c-0.55,5.22-0.82,10.54-0.82,15.85
		c0,35.74,11.64,68.82,31.34,95.76l-20.53,60.67l63.23-20.16c26.03,17.14,57.09,27.03,90.54,27.03
		c90.72,0,164.59-73.22,164.59-163.3c0-4.31-0.18-8.52-0.55-12.74C567.52,270.69,496.5,204.25,410.08,204.25z M506.12,434.91
		c-3.94,11.18-23.55,21.9-32.35,22.63c-8.8,0.83-8.8,7.15-57.64-11.82c-48.75-19.15-79.55-68.82-81.93-71.94
		c-1.83-2.38-12.28-16.22-17.14-32.99c-1.47-5.22-2.48-10.72-2.48-16.22c0-23.46,12.37-35.01,16.77-39.77
		c4.4-4.77,9.62-5.96,12.83-5.96s6.41,0.46,9.16,0.46c2.84,0,6.87-1.65,10.81,7.88c4.03,9.53,13.65,32.99,14.85,35.37
		c1.19,2.38,2.02,5.13,0.37,8.34c-1.1,2.29-1.93,3.94-3.03,5.68c-0.55,0.73-1.1,1.47-1.74,2.29c-2.47,2.75-5.04,6.14-7.24,8.34
		c-2.38,2.38-4.86,4.95-2.11,9.71c2.75,4.77,12.46,20.34,26.67,32.9c18.33,16.31,33.82,21.26,38.58,23.64
		c4.86,2.38,7.6,2.02,10.44-1.19c2.75-3.12,12.01-13.84,15.21-18.6c3.2-4.77,6.41-4.03,10.81-2.38c4.4,1.56,27.95,13.11,32.81,15.49
		c4.76,2.38,7.97,3.57,9.16,5.5C510.16,414.29,510.16,423.82,506.12,434.91z"/>
	<path class="st0" d="M405.52,42.72c-190.38,0-344.71,154.33-344.71,344.71s154.33,344.71,344.71,344.71
		s344.71-154.33,344.71-344.71C750.22,197.05,595.89,42.72,405.52,42.72z M410.08,561.83c-34.27,0-66.53-8.8-94.57-24.19
		L207.1,572.09l35.28-104.2c-17.78-29.32-28.04-63.6-28.04-100.35c0-2.84,0.09-5.68,0.18-8.52
		c4.58-103.37,90.36-185.76,195.56-185.76c106.49,0,193,84.31,195.65,189.33c0.09,1.65,0.09,3.3,0.09,4.95
		C605.83,474.86,518.22,561.83,410.08,561.83z"/>
</g>
</svg>
